<?xml version="1.0" encoding="utf-8"?>
<!-- Generator: Adobe Illustrator 23.1.1, SVG Export Plug-In . SVG Version: 6.00 Build 0)  -->
<svg version="1.1" id="レイヤー_1" xmlns="http://www.w3.org/2000/svg" xmlns:xlink="http://www.w3.org/1999/xlink" x="0px"
	 y="0px" viewBox="0 0 89.7 95.5" style="enable-background:new 0 0 89.7 95.5;" xml:space="preserve">
<style type="text/css">
	.st0{fill:#0075C1;}
	.st1{fill:#F08C00;}
	.st2{enable-background:new    ;}
</style>
<title>telework</title>
<g>
	<path class="st0" d="M15.4,86h-4.7v1.2h1.7v7h1.3v-6.9h1.8L15.4,86L15.4,86z M17.4,88.1c-1.3,0-2.3,1.3-2.3,3.1
		c0,1.9,0.8,3.1,2.4,3.1c0.5,0,1-0.1,1.5-0.3l-0.2-1.2c-0.4,0.1-0.8,0.2-1,0.2c-0.8,0-1.1-0.4-1.2-1.3h2.8c0-0.1,0-0.5,0-0.8
		C19.4,89.3,18.5,88.1,17.4,88.1 M16.5,90.5c0.1-0.8,0.3-1.2,0.9-1.2c0.5,0,0.9,0.5,0.9,1.2H16.5z M24.9,88.1
		c-1.3,0-2.3,1.3-2.3,3.1c0,1.9,0.8,3.1,2.4,3.1c0.5,0,1-0.1,1.5-0.3l-0.2-1.1c-0.4,0.2-0.9,0.3-1.1,0.3c-0.8,0-1.1-0.4-1.2-1.3h2.9
		c0-0.1,0-0.5,0-0.8C26.9,89.3,26.2,88.1,24.9,88.1 M23.9,90.5c0.1-0.8,0.3-1.2,0.9-1.2s0.9,0.5,0.9,1.2H23.9z M70.1,88.1
		c-1.3,0-2.3,1.3-2.3,3.1c0,1.9,0.8,3.1,2.4,3.1c0.5,0,1-0.1,1.5-0.3l-0.2-1.1c-0.4,0.2-0.9,0.3-1.1,0.3c-0.8,0-1.1-0.4-1.2-1.3h3
		c0-0.1,0-0.5,0-0.8C71.9,89.3,71.3,88.1,70.1,88.1 M69.1,90.5c0.1-0.8,0.3-1.2,0.9-1.2c0.5,0,0.9,0.5,0.9,1.2H69.1z M74.8,88.1
		c-1.3,0-2.3,1.3-2.3,3.1c0,1.9,0.8,3.1,2.4,3.1c0.5,0,1-0.1,1.5-0.3l-0.1-1.1c-0.4,0.2-0.9,0.3-1.1,0.3c-0.8,0-1.1-0.4-1.2-1.3h2.7
		c0-0.1,0-0.5,0-0.8C76.9,89.3,76.1,88.1,74.8,88.1 M73.9,90.5c0-0.8,0.3-1.2,0.9-1.2c0.5,0,0.9,0.5,0.9,1.2H73.9z M22,92.9
		c-0.5,0-0.5-0.3-0.5-0.9v-6.1h-1.2v6.4c0,1.3,0.5,2,1.5,2c0.3,0,0.5,0,0.8-0.1L22.5,93C22.3,92.9,22.2,92.9,22,92.9 M31.9,92.4
		l-0.8-4.2h-1l-0.7,4.2l-0.7-4.2h-1.3l1.1,5.9h1.2l0.9-3.9l0.9,3.9h1.2l1.1-5.9h-1.3L31.9,92.4z M36.5,88.1c-1.6,0-2.2,1.8-2.2,3.1
		s0.5,3.1,2.2,3.1s2.2-1.6,2.2-3.1S38.1,88.1,36.5,88.1 M36.5,93c-0.9,0-0.9-1.2-0.9-1.9c0-0.7,0.1-1.9,0.9-1.9
		c0.9,0,0.9,1.2,0.9,1.9C37.4,91.7,37.4,93,36.5,93 M60,88.1c-1.6,0-2.2,1.8-2.2,3.1s0.5,3.1,2.2,3.1s2.2-1.6,2.2-3.1
		S61.6,88.1,60,88.1 M60,93c-0.9,0-0.9-1.2-0.9-1.9c0-0.5,0.1-1.9,0.9-1.9c0.9,0,0.9,1.2,0.9,1.9C60.9,91.7,60.8,93,60,93 M80,88.1
		c-0.7,0-0.9,0.4-1.1,0.9l-0.1-0.9h-1V94H79v-2.9c0-1.3,0.4-1.8,1-1.8c0.1,0,0.3,0,0.4,0V88C80.3,88.2,80.2,88.1,80,88.1 M40.7,89.1
		l-0.1-0.9h-1v5.9h1.2v-2.9c0-1.3,0.4-1.8,1-1.8c0.1,0,0.3,0,0.4,0v-1.3c-0.1,0-0.2,0-0.3,0C41.3,88.1,40.9,88.6,40.7,89.1 M47,88.2
		h-1.3l-1.5,2.7v-5.2H43V94h1.2v-3.1l2,3.1h1.3l-2-3.1L47,88.2z M65.5,88.1c-0.8,0-1.1,0.5-1.2,0.9l-0.1-0.8h-1.1v5.9h1.2v-3.6
		c0-0.7,0.2-1,0.8-1c0.7,0,0.8,0.5,0.8,1v3.6h1.2V90C67.1,88.7,66.3,88.1,65.5,88.1 M55.2,89.3l0.7,0.2v4.6H57v-5.9h-1.9L55.2,89.3
		L55.2,89.3z M56.3,85.8c-0.4,0-0.9,0.4-0.9,0.9c0,0.4,0.4,0.9,0.9,0.9s0.9-0.4,0.9-0.9C57.1,86.2,56.8,85.8,56.3,85.8 M51.9,85.8
		c-0.5,0-1.6,0.1-2,0.1v8.2h1.2v-2.7c0.1,0,0.5,0,0.7,0c1.5,0,2.5-0.9,2.5-2.9C54.5,86.2,53.3,85.8,51.9,85.8 M52,90.2
		c-0.1,0-0.7,0-0.7,0v-3c0.1,0,0.7,0,0.7,0c0.8,0,1.1,0.7,1.1,1.6C53.3,89.6,52.9,90.2,52,90.2"/>
	<path class="st1" d="M24.9,73.9c-2.5,0-4.5,2.1-4.5,4.5c0,2.5,2.1,4.5,4.5,4.5s4.5-2.1,4.5-4.5C29.4,75.9,27.4,73.9,24.9,73.9
		 M43.5,54.2c-11.1-8.1-21.7-8.7-25.7-4.9c-3.9,3.7-1.5,13.5,10.4,22.6c11.7,9,23,9.8,27,5.3C59,72.4,54.6,62.3,43.5,54.2
		 M52.4,75.7c-3.8,3.3-14.9,1.6-24.1-5.9S17.2,54.6,20,50.9c2.7-3.5,12.2-4.5,23.6,4.1C54.7,63.3,56.5,72.3,52.4,75.7"/>
	<path class="st0" d="M76.8,56.2V57c0,0.9-0.4,1.6-1.1,2c0.3,4.2-0.9,7.7-3.3,9.8c-5.7,4.8-19.8,4.9-36.3-6.1h3.4l2.9-17.4l0,0
		l2.7,17.4h3.6l3.5-26.3h-3.6l-1.9,17L43.6,36h-3l-3.1,17.5l-2-17.5H19.9v3.5h4.5v13.7c-11-11.5-12.2-22.3-8.1-27.3
		c5.3-6.4,23-6.6,41.6,7.8c7.2,5.6,12,11.3,14.7,16.4v-2c-3.1-4.8-7.8-9.8-13.8-14.7c-17.3-13.8-38.4-16.9-45.2-9
		c-7.2,8-0.3,25.4,17.8,38.6c18.2,13.3,35.9,15.2,43.1,8.7C78.2,68.2,79,62.9,76.8,56.2 M32.1,60.1c-1.3-1-2.7-2.2-3.9-3.2V39.4h3.9
		l3.5,23.1C34.4,61.8,33.5,61,32.1,60.1"/>
	<path class="st1" d="M47,39.6h1.8v22.9h3.8V35.8h-5.7L47,39.6L47,39.6z M60.8,35.6c-3.2,0-5.8,2.5-5.8,5.8v15.9
		c0,3.3,2.6,5.8,5.8,5.8s5.8-2.5,5.8-5.8v-16C66.6,37.9,64.3,35.6,60.8,35.6 M62.7,57.2c0,1-0.8,2-2,2s-2-0.8-2-2V41.3
		c0-1.1,0.8-2,2-2c1,0,2,0.9,2,2V57.2z M74.7,35.6c-3.2,0-5.8,2.5-5.8,5.8v15.9c0,3.3,2.6,5.8,5.8,5.8c3.2,0,5.8-2.5,5.8-5.8v-16
		C80.4,37.9,77.9,35.6,74.7,35.6 M76.5,57.2c0,1-0.8,2-2,2c-1.1,0-2-0.8-2-2V41.3c0-1.1,0.9-2,2-2s2,0.9,2,2V57.2z"/>
</g>
<g>
	<g class="st2">
		<path d="M11.5,4.7c0,2.7-1.5,3.3-3,3.6L8.2,7.9c1.1-0.2,2-0.6,2.4-1.5C10.9,6,11,5.1,11,4.8V4.4H7.7V4h6.5v0.5h-2.7V4.7z
			 M13.6,1.9v0.5H8.4V1.9H13.6z"/>
		<path d="M16.2,7.7c3.3-0.4,4.2-2.1,4.8-4.1l0.4,0.3c-0.7,2-1.6,4.1-5.8,4.4V1.7h0.5V7.7z"/>
		<path d="M28.3,2.1v0.4c0,2.3-0.5,3.4-1.2,4.1c-1,1.1-2.7,1.5-3.5,1.6l-0.2-0.4c3.8-0.8,4.4-2.3,4.4-5.3H23V5h-0.5V2.1H28.3z"/>
		<path d="M36.6,4.8v0.5h-6.9V4.8H36.6z"/>
		<path d="M37.9,7.9c1.4-0.3,4.4-1.3,5-5.4h-3.1c-0.6,0.9-1.1,1.6-2.1,2.3l-0.3-0.4C38,4,38.9,3.2,39.5,2.1h4c-0.4,5-4.1,6-5.3,6.3
			L37.9,7.9z"/>
		<path d="M47.9,2.5V1.4h0.4v1.1h3v0.4h-3v1.7h3.4V5h-2.6v2.9c0,0.2,0,0.2,0.2,0.2h1.3c0.3,0,0.3,0,0.4-0.2c0-0.1,0.1-0.3,0.2-1
			L51.7,7c-0.1,1.6-0.5,1.6-0.9,1.6h-1.4c-0.5,0-0.7-0.1-0.7-0.6V5h-1.4c-0.1,1.7-0.6,3.1-2.7,3.7l-0.2-0.5c2-0.5,2.4-1.7,2.4-3.2
			h-2.4V4.6h3.5V2.9h-1.8c-0.4,0.8-0.7,1.2-0.9,1.4l-0.4-0.2c0.9-0.9,1.3-2.2,1.4-2.6l0.4,0.1c-0.1,0.3-0.2,0.6-0.3,0.9H47.9z"/>
		<path d="M52.9,6.3c0,0.5-0.1,1.5-0.3,1.9L52.3,8c0.2-0.5,0.3-1.2,0.3-1.7L52.9,6.3z M55.8,1.6V2h-1.3v0.9h1.1v0.4h-1.1v0.8h1.1
			v0.4h-1.1v1h1.2c0,0.8-0.1,2.2-0.2,2.7c-0.1,0.3-0.2,0.6-0.8,0.6h-0.9l-0.1-0.5l0.9,0C54.8,8.3,55,8.2,55,8c0-0.2,0.2-0.7,0.2-2.2
			l-2.5,0V1.6H55.8z M54.1,2h-1v0.9h1V2z M54.1,3.3h-1v0.8h1V3.3z M54.1,4.4h-1v1h1V4.4z M53.5,6.3c0,0.5,0.1,1,0.1,1.5l-0.4,0.1
			c0-0.2,0-0.4,0-0.7c0-0.2,0-0.3,0-0.9L53.5,6.3z M54.1,6.3c0,0.2,0.2,0.9,0.2,1.4L54,7.7c0-0.5-0.1-1.1-0.2-1.4L54.1,6.3z
			 M54.7,6.3C54.8,6.3,55,7,55,7.3l-0.3,0.1c-0.1-0.5-0.2-0.8-0.3-1.1L54.7,6.3z M59.7,1.6V2h-3.2v6.1h3.2v0.4h-3.6V1.6H59.7z
			 M59.3,2.7c-0.2,1-0.4,1.6-0.7,2.2c0.6,0.9,0.8,1.4,1.1,2l-0.4,0.2c-0.3-0.7-0.6-1.2-0.9-1.8c-0.6,1.1-0.9,1.6-1.4,2.1l-0.3-0.3
			c0.5-0.5,0.9-1.1,1.4-2.2c-0.5-0.8-0.9-1.1-1.3-1.6l0.4-0.3c0.3,0.3,0.6,0.7,1.1,1.4c0.2-0.6,0.4-1.2,0.6-2L59.3,2.7z"/>
		<path d="M67.2,1.6c-0.8,1.1-1.6,1.7-2.2,2.2h2.7v0.4h-3.2c-0.6,0.5-1.3,0.8-1.6,1h4v3.4h-5.1V5.7c-0.3,0.1-0.6,0.2-1.2,0.4
			l-0.2-0.4C62,5.3,63,4.6,63.8,4.2h-3.4V3.8h2.9V2.6H61V2.2h2.3V1.3h0.4v0.9h1.9v0.4h-1.9v1.2h0.6c0.6-0.5,1.7-1.2,2.5-2.4
			L67.2,1.6z M66.5,5.5h-4.3v1.1h4.3V5.5z M66.5,7h-4.3v1.2h4.3V7z"/>
		<path d="M75,3.5v5.1h-5.8V3.5h2.4c0.1-0.4,0.2-0.9,0.3-1.4h-3.4V1.7h7.3v0.4h-3.4c-0.2,1-0.3,1.1-0.3,1.4H75z M69.6,3.9v1.9h4.9
			V3.9H69.6z M69.6,6.2v2h4.9v-2H69.6z"/>
		<path d="M77.8,4.5v2.3c0,0.5,0.3,0.9,0.8,1.1c0.5,0.2,1.1,0.2,1.4,0.2h3.8l-0.1,0.4h-3.8c-0.2,0-0.8,0-1.4-0.2
			c-0.5-0.2-0.8-0.5-0.9-0.7c-0.5,0.5-0.6,0.7-1.1,1.1l-0.3-0.4c0.3-0.2,0.8-0.6,1.1-1V5h-1V4.5H77.8z M77.8,3
			c-0.4-0.5-0.7-0.8-1.2-1.2l0.3-0.3c0.3,0.2,0.8,0.7,1.2,1.2L77.8,3z M80.6,1.5v1.3h-1.7v0.6c0,0.2,0,0.2,0.2,0.2h1.2
			c0.1,0,0.2,0,0.2-0.6l0.4,0.1C80.8,3.9,80.6,4,80.2,4h-1.3c-0.1,0-0.5,0-0.5-0.4V2.4h1.8V1.9h-1.9V1.5H80.6z M83.7,6.4h-5.4V6.1
			h1.4V5.2h-1.3V4.8h1.3V4.2h0.4v0.6h1.6V4.2h0.4v0.6h1.4v0.4h-1.4v0.9h1.5V6.4z M78.6,7.4C79,7.3,79.6,7,80,6.6l0.3,0.3
			c-0.5,0.4-0.8,0.6-1.5,0.8L78.6,7.4z M81.7,5.2h-1.6v0.9h1.6V5.2z M83.2,1.5v1.3h-1.8v0.6c0,0.2,0.1,0.2,0.2,0.2h1.3
			c0.3,0,0.3-0.1,0.3-0.6l0.4,0.1c0,0.4,0,0.8-0.6,0.8h-1.4c-0.5,0-0.5-0.2-0.5-0.5v-1h1.8V1.9H81V1.5H83.2z M81.9,6.7
			c0.5,0.4,1,0.6,1.7,0.8l-0.2,0.4C83,7.7,82.3,7.5,81.6,7L81.9,6.7z"/>
	</g>
	<g class="st2">
		<path d="M11.4,11c-0.6,1.2-1.5,2.4-1.8,2.8c0.4,0,0.9,0,1.2-0.1c-0.1-0.3-0.2-0.4-0.3-0.6l0.4-0.2c0.1,0.2,0.4,0.7,0.6,1.4
			l-0.4,0.2c-0.1-0.3-0.1-0.4-0.2-0.5c-0.2,0-0.4,0.1-0.7,0.1v3.5H9.9v-3.5c-0.3,0-1,0.1-1.3,0.1l0-0.4c0.2,0,0.4,0,0.7,0
			c0.1-0.2,0.3-0.5,0.4-0.6c-0.3-0.3-0.7-0.7-1.2-1.1l0.3-0.3C8.9,11.8,8.9,11.9,9,12c0.4-0.6,0.6-0.9,0.8-1.6l0.5,0.2
			c-0.3,0.6-0.7,1.3-1,1.6c0.3,0.3,0.5,0.5,0.6,0.6c0.7-1.1,0.9-1.6,1.1-2L11.4,11z M8.6,17C8.9,16.1,9,15.3,9,14.9l0.4,0.1
			c0,0.3-0.1,1.4-0.5,2.2L8.6,17z M10.9,16.3c-0.1-0.5-0.1-0.8-0.2-1.4l0.4-0.1c0.1,0.4,0.3,0.9,0.3,1.4L10.9,16.3z M11.3,17.1
			c0.4-0.6,0.5-1.5,0.6-1.9l0.4,0.1c0,0.2-0.2,1.1-0.6,1.9L11.3,17.1z M11.3,12.2c0.5-0.4,1.1-1,1.5-1.8l0.4,0.2
			c-0.4,0.8-0.9,1.4-1.5,1.9L11.3,12.2z M13.6,11.8c-0.2,0.5-0.5,1.4-0.8,1.9c1,0,1.3,0,2-0.1c-0.2-0.3-0.3-0.5-0.7-0.9l0.3-0.2
			c0.5,0.5,1,1.2,1.3,1.8l-0.4,0.3c-0.1-0.2-0.2-0.4-0.3-0.5C14,14,12.9,14,11.8,14l-0.1-0.4c0.1,0,0.5,0,0.6,0
			c0.1-0.3,0.6-1.2,0.8-2L13.6,11.8z M14.1,15.4c-0.5-0.4-0.9-0.6-1.4-0.9l0.3-0.3c0.4,0.2,1,0.5,1.5,0.8L14.1,15.4z M13.2,17
			c0,0.2,0,0.2,0.2,0.2H14c0.2,0,0.3,0,0.4-0.8l0.4,0.1c-0.1,0.9-0.2,1.2-0.7,1.2h-0.8c-0.4,0-0.5-0.2-0.5-0.5v-1.7h0.4V17z
			 M14.6,10.4c0.4,0.7,0.9,1.2,1.4,1.6l-0.3,0.3c-0.3-0.2-1-0.8-1.5-1.7L14.6,10.4z M15.5,17.1c-0.1-0.7-0.3-1.2-0.7-1.9l0.4-0.2
			c0.2,0.4,0.6,1.2,0.7,1.9L15.5,17.1z"/>
		<path d="M16.5,16.1c0.9-0.9,1.6-2.3,1.7-2.7h-1.6V13H20v0.3c-0.1,0.5-0.4,1.1-0.7,1.5l-0.4-0.2c0.2-0.3,0.5-0.8,0.6-1.2h-0.8v3.7
			c0,0.6-0.4,0.6-0.6,0.6h-0.8l-0.1-0.5l0.9,0c0.2,0,0.3,0,0.3-0.2v-2.7c-0.4,0.8-0.8,1.5-1.4,2.2L16.5,16.1z M18.8,12.9
			c-0.5-0.5-1.1-0.9-1.4-1.1l0.3-0.3c0.2,0.1,0.4,0.2,0.7,0.5c0.2-0.1,0.6-0.6,0.9-1H17v-0.4h2.9V11c-0.3,0.4-0.7,0.9-1.2,1.3
			c0.2,0.2,0.3,0.3,0.4,0.4L18.8,12.9z M19.4,17.3c1.4-0.6,1.7-1.4,1.8-2.2h-1.5v-0.4h1.6c0-0.3,0-0.5,0-0.7h0.4c0,0.2,0,0.4,0,0.7
			h2c0,0.8-0.1,2.1-0.3,2.6c-0.1,0.3-0.4,0.4-0.7,0.4h-0.9l-0.1-0.5l1,0c0.3,0,0.4-0.1,0.4-0.2c0.2-0.3,0.3-1.3,0.3-2h-1.6
			c-0.2,1.1-0.6,1.8-1.9,2.6L19.4,17.3z M23.9,11v0.4h-0.6c-0.1,0.3-0.4,1-1,1.6c0.7,0.5,1.3,0.6,1.7,0.7l-0.2,0.4
			c-0.5-0.1-1.1-0.4-1.8-0.9c-0.6,0.4-1.2,0.7-1.8,0.8l-0.2-0.4c0.8-0.2,1.3-0.4,1.7-0.7c-0.6-0.5-0.8-0.9-1-1.2
			c-0.3,0.4-0.5,0.6-0.6,0.7l-0.3-0.2c0.6-0.5,1.2-1.3,1.4-1.9l0.4,0.1c-0.1,0.2-0.1,0.3-0.3,0.6H23.9z M21,11.4
			C20.9,11.4,20.9,11.5,21,11.4c0.1,0.3,0.3,0.8,1,1.4c0.6-0.5,0.8-1.1,0.9-1.4H21z"/>
		<path d="M24.5,13.9c2.4-0.3,3.9-1,5.4-2.2l0.3,0.3c-0.8,0.7-1.6,1.2-2.5,1.5h3.5v4.1h-5.4V14c-0.3,0.1-0.5,0.1-1.1,0.2L24.5,13.9z
			 M24.6,12.1c1-0.4,1.5-0.9,2-1.6l0.4,0.2c-0.6,0.9-1.6,1.5-2.1,1.7L24.6,12.1z M26.6,13.8c-0.1,0-0.1,0-0.4,0.1v0.7h4.5v-0.8H26.6
			z M30.7,15h-4.5v0.8h4.5V15z M30.7,16.2h-4.5v0.9h4.5V16.2z M28.5,12c0,0.3-0.1,0.5-0.5,0.5h-1L27,12.1l0.9,0c0.1,0,0.2,0,0.2-0.2
			v-1.6h0.5V12z M29.9,10.5c0.8,0.9,1.4,1.3,2.1,1.6l-0.3,0.4c-1.1-0.5-1.7-1.1-2.2-1.7L29.9,10.5z"/>
		<path d="M39.7,12.4h-3.2v2h2.9v0.4h-2.9v2.3H40v0.4h-7.3v-0.4h3.4v-2.3h-2.9v-0.4h2.9v-2h-3.2V12h6.9V12.4z M36.8,11.9
			c-0.6-0.6-1.4-1-2-1.2l0.2-0.4c0.3,0.1,1.3,0.5,2.1,1.2L36.8,11.9z"/>
		<path d="M42,17.7h-0.4v-4.4c-0.3,0.5-0.5,0.7-0.8,1l-0.2-0.4c1.1-1.3,1.6-3,1.7-3.5l0.4,0.1c-0.2,0.9-0.4,1.4-0.7,2V17.7z
			 M42.3,14.5c0.6-0.5,1.2-1.1,1.6-2.2l0.4,0.2c-0.1,0.2-0.2,0.4-0.4,0.7h1.4c0.2-0.3,0.3-0.5,0.5-0.9l0.4,0.2
			c-0.1,0.2-0.2,0.4-0.4,0.7h2v0.4h-2v0.9h1.8v0.3h-1.8v0.9h1.8v0.4h-1.8v1.1H48v0.4h-4.6v-3.5c-0.2,0.2-0.4,0.5-0.8,0.9L42.3,14.5z
			 M43.5,11.9h1.7v-1.5h0.4v1.5h1.8v-1.2h0.4v1.5h-4.7v-1.5h0.4V11.9z M45.4,13.6h-1.6v0.9h1.6V13.6z M45.4,14.8h-1.6v0.9h1.6V14.8z
			 M45.4,16.1h-1.6v1.1h1.6V16.1z"/>
		<path d="M52.7,13.5v2.3c0,0.5,0.3,0.9,0.8,1.1c0.5,0.2,1.1,0.2,1.4,0.2h3.8l-0.1,0.4h-3.8c-0.2,0-0.8,0-1.4-0.2
			c-0.5-0.2-0.8-0.5-0.9-0.7c-0.5,0.5-0.6,0.7-1.1,1.1l-0.3-0.4c0.3-0.2,0.8-0.6,1.1-1V14h-1v-0.4H52.7z M52.6,12
			c-0.4-0.5-0.7-0.8-1.2-1.2l0.3-0.3c0.3,0.2,0.8,0.7,1.2,1.2L52.6,12z M55.5,10.5v1.3h-1.7v0.6c0,0.2,0,0.2,0.2,0.2h1.2
			c0.1,0,0.2,0,0.2-0.6l0.4,0.1c-0.1,0.8-0.3,0.8-0.6,0.8h-1.3c-0.1,0-0.5,0-0.5-0.4v-1.1h1.8v-0.6h-1.9v-0.4H55.5z M58.6,15.4h-5.4
			v-0.4h1.4v-0.9h-1.3v-0.4h1.3v-0.6h0.4v0.6h1.6v-0.6h0.4v0.6h1.4v0.4h-1.4v0.9h1.5V15.4z M53.5,16.4c0.4-0.1,1-0.4,1.5-0.8
			l0.3,0.3c-0.5,0.4-0.8,0.6-1.5,0.8L53.5,16.4z M56.6,14.2h-1.6v0.9h1.6V14.2z M58.1,10.5v1.3h-1.8v0.6c0,0.2,0.1,0.2,0.2,0.2h1.3
			c0.3,0,0.3-0.1,0.3-0.6l0.4,0.1c0,0.4,0,0.8-0.6,0.8h-1.4C56,13,56,12.7,56,12.5v-1h1.8v-0.6h-1.9v-0.4H58.1z M56.8,15.7
			c0.5,0.4,1,0.6,1.7,0.8l-0.2,0.4c-0.3-0.1-1.1-0.3-1.8-0.8L56.8,15.7z"/>
		<path d="M60.3,11v2.5h2.4v-3.1h0.4v3.1h2.4V11H66v2.9h-2.8v3.3h2.7v-2.5h0.4v2.9h-6.7v-2.9h0.4v2.5h2.7v-3.3h-2.8V11H60.3z"/>
		<path d="M67.2,13c1.2-0.5,2.7-1.5,3.5-2.7h0.5c0.9,1.2,2.4,2.2,3.6,2.7l-0.2,0.5c-1.3-0.5-2.7-1.7-3.6-2.8c-0.8,1-2.1,2.1-3.6,2.7
			L67.2,13z M73.9,14.7h-2.6v2.4h3.2v0.4h-7.1v-0.4h1.2v-3.4H69v3.4h1.8v-4.6h0.5v1.8h2.6V14.7z"/>
		<path d="M82.3,17.5c-1.6-0.6-2.2-1-3.1-1.9v2h-0.4v-2c-0.5,0.5-1.4,1.3-3.1,1.9l-0.3-0.4c1.6-0.4,2.4-1,3.1-1.7h-3.1v-0.4h3.5
			v-0.7h-2.9V14h2.9v-0.7h-3.1V13h1.8c0-0.2-0.1-0.4-0.3-1h-1.9v-0.4h1.4c-0.2-0.5-0.4-0.8-0.5-1l0.4-0.2c0.3,0.4,0.4,0.8,0.6,1.2
			H78v-1.3h0.4v1.3h1.1v-1.3h0.4v1.3h0.8c0.2-0.4,0.4-0.8,0.7-1.2l0.4,0.2c-0.2,0.4-0.3,0.7-0.6,1h1.5V12h-1.9
			c-0.1,0.3-0.1,0.6-0.3,1h1.9v0.4h-3.1V14H82v0.4h-2.9v0.7h3.5v0.4h-3.1c1.1,1,2.2,1.5,3.1,1.7L82.3,17.5z M80,13
			c0.1-0.4,0.2-0.6,0.3-1h-2.6c0.1,0.3,0.1,0.5,0.2,1H80z"/>
	</g>
</g>
</svg>
